<svg id="Capa_1" enable-background="new 0 0 512 512" height="512" viewBox="0 0 512 512" width="512" xmlns="http://www.w3.org/2000/svg" xmlns:xlink="http://www.w3.org/1999/xlink"><linearGradient id="SVGID_1_" gradientUnits="userSpaceOnUse" x1="256" x2="256" y1="512" y2="0"><stop offset="0" stop-color="#a93aff"/><stop offset="1" stop-color="#ff81ff"/></linearGradient><linearGradient id="SVGID_2_" gradientUnits="userSpaceOnUse" x1="256" x2="256" y1="452" y2="60"><stop offset="0" stop-color="#ffbef9"/><stop offset="1" stop-color="#fff1ff"/></linearGradient><g id="Notes_1_"><g><g><path d="m451 0h-390c-8.291 0-15 6.709-15 15v482c0 8.291 6.709 15 15 15h390c8.291 0 15-6.709 15-15v-482c0-8.291-6.709-15-15-15z" fill="url(#SVGID_1_)"/></g></g><g><g><path d="m211 120h90c8.401 0 15-6.601 15-15v-45h-120v45c0 8.399 6.599 15 15 15zm180-60h-45v45c0 24.899-20.099 45-45 45h-90c-24.901 0-45-20.101-45-45v-45h-45c-8.401 0-15 6.599-15 15v362c0 8.399 6.599 15 15 15h270c8.401 0 15-6.601 15-15v-362c0-8.401-6.599-15-15-15zm-60 301h-150c-8.401 0-15-6.601-15-15 0-8.401 6.599-15 15-15h150c8.401 0 15 6.599 15 15 0 8.399-6.599 15-15 15zm0-60h-150c-8.401 0-15-6.601-15-15 0-8.401 6.599-15 15-15h150c8.401 0 15 6.599 15 15 0 8.399-6.599 15-15 15zm0-60h-150c-8.401 0-15-6.601-15-15 0-8.401 6.599-15 15-15h150c8.401 0 15 6.599 15 15 0 8.399-6.599 15-15 15z" fill="url(#SVGID_2_)"/></g></g></g></svg>