<svg id="Capa_1" enable-background="new 0 0 512 512" height="512" viewBox="0 0 512 512" width="512" xmlns="http://www.w3.org/2000/svg" xmlns:xlink="http://www.w3.org/1999/xlink"><linearGradient id="SVGID_1_" gradientUnits="userSpaceOnUse" x1="256" x2="256" y1="512" y2="0"><stop offset="0" stop-color="#fd3a84"/><stop offset="1" stop-color="#ffa68d"/></linearGradient><linearGradient id="SVGID_2_" gradientUnits="userSpaceOnUse" x1="256" x2="256" y1="240" y2="90"><stop offset="0" stop-color="#ffc8d1"/><stop offset="1" stop-color="#fff6f7"/></linearGradient><g id="Placeholder_2_"><g><path d="m256 512c-6.694 0-12.583-4.438-14.429-10.884l-52.471-185.662c-59.838-26.587-98.1-84.844-98.1-150.454 0-90.981 74.019-165 165-165s165 74.019 165 165c0 65.61-38.262 123.867-98.101 150.454l-52.471 185.662c-1.845 6.446-7.734 10.884-14.428 10.884z" fill="url(#SVGID_1_)"/></g><g><path d="m256 240c-41.353 0-75-33.647-75-75s33.647-75 75-75 75 33.647 75 75-33.647 75-75 75z" fill="url(#SVGID_2_)"/></g></g></svg>