<svg id="Capa_1" enable-background="new 0 0 512 512" height="512" viewBox="0 0 512 512" width="512" xmlns="http://www.w3.org/2000/svg" xmlns:xlink="http://www.w3.org/1999/xlink"><linearGradient id="SVGID_1_" gradientUnits="userSpaceOnUse" x1="256" x2="256" y1="512" y2="30"><stop offset="0" stop-color="#fd5900"/><stop offset="1" stop-color="#ffde00"/></linearGradient><linearGradient id="SVGID_2_" gradientUnits="userSpaceOnUse" x1="256" x2="256" y1="374.99" y2="0"><stop offset="0" stop-color="#ffe59a"/><stop offset="1" stop-color="#ffffd5"/></linearGradient><g><g><g><path d="m421 196-15-75v-31c0-16.5-13.499-30-30-30h-285c-8.101 0-15.3-6.301-15-14.399.3-8.401-6.599-15.601-15-15.601s-15 6.599-15 15v422c0 24.901 20.098 45 45 45h300c8.401 0 15-6.599 15-15v-76l15-75 45-30v-90z" fill="url(#SVGID_1_)"/></g></g><g><g><path d="m406 15c0-8.284-6.716-15-15-15h-300c-24.814 0-45 20.186-45 45s20.186 45 45 45h315zm-203.401 138.1c-47.399 9.3-85.199 47.1-94.497 94.499-7.5 39.6 4.797 80.101 32.996 108.301 7.5 7.5 15.901 13.799 24.902 18.9 0-30.582 25.809-58.8 60-58.8 33.877 0 60 27.811 60 59.099 29.399-17.098 51.299-46.199 57.898-80.698 7.5-39.6-4.797-80.101-32.996-108.301-28.202-28.201-68.701-40.5-108.303-33zm23.401 147.9c-24.902 0-45-20.099-45-45s20.098-45 45-45 45 20.099 45 45-20.098 45-45 45zm225-180h-45v105h60v-90c0-8.401-6.599-15-15-15zm-45 300h45c8.401 0 15-6.599 15-15v-90h-60z" fill="url(#SVGID_2_)"/></g></g></g></svg>