<svg id="Capa_1" enable-background="new 0 0 512 512" height="512" viewBox="0 0 512 512" width="512" xmlns="http://www.w3.org/2000/svg" xmlns:xlink="http://www.w3.org/1999/xlink"><linearGradient id="SVGID_1_" gradientUnits="userSpaceOnUse" x1="256" x2="256" y1="512" y2="0"><stop offset="0" stop-color="#5558ff"/><stop offset="1" stop-color="#00c0ff"/></linearGradient><linearGradient id="SVGID_2_" gradientUnits="userSpaceOnUse" x1="256" x2="256" y1="361" y2="151"><stop offset="0" stop-color="#addcff"/><stop offset=".5028" stop-color="#eaf6ff"/><stop offset="1" stop-color="#eaf6ff"/></linearGradient><g><path d="m286 512h-60c-7.347 0-13.612-5.321-14.802-12.571l-9.224-56.195c-13.953-4.022-27.398-9.604-40.159-16.673l-45.59 32.563c-5.967 4.261-14.14 3.585-19.325-1.6l-42.425-42.424c-5.185-5.185-5.861-13.358-1.6-19.325l32.563-45.59c-7.069-12.761-12.651-26.206-16.673-40.159l-56.194-9.223c-7.25-1.191-12.571-7.456-12.571-14.803v-60c0-7.347 5.321-13.612 12.571-14.802l56.194-9.223c4.022-13.953 9.604-27.398 16.673-40.159l-32.563-45.59c-4.262-5.967-3.585-14.14 1.6-19.325l42.425-42.426c5.185-5.185 13.358-5.861 19.325-1.6l45.59 32.563c12.761-7.069 26.206-12.651 40.159-16.673l9.224-56.195c1.19-7.249 7.455-12.57 14.802-12.57h60c7.347 0 13.612 5.321 14.802 12.571l9.224 56.194c13.953 4.022 27.398 9.604 40.159 16.673l45.59-32.563c5.966-4.262 14.14-3.586 19.325 1.6l42.425 42.425c5.185 5.185 5.861 13.358 1.6 19.325l-32.563 45.59c7.069 12.762 12.651 26.207 16.673 40.159l56.194 9.223c7.25 1.191 12.571 7.456 12.571 14.803v60c0 7.347-5.321 13.612-12.571 14.802l-56.194 9.223c-4.021 13.953-9.604 27.398-16.673 40.159l32.563 45.59c4.262 5.967 3.585 14.14-1.6 19.325l-42.425 42.426c-5.186 5.185-13.358 5.861-19.325 1.6l-45.59-32.563c-12.761 7.069-26.207 12.651-40.159 16.673l-9.224 56.194c-1.19 7.25-7.455 12.571-14.802 12.571zm211-226h.01z" fill="url(#SVGID_1_)"/><path d="m256 361c-57.897 0-105-47.103-105-105s47.103-105 105-105 105 47.103 105 105-47.103 105-105 105z" fill="url(#SVGID_2_)"/></g></svg>