<svg id="Capa_1" enable-background="new 0 0 512 512" height="512" viewBox="0 0 512 512" width="512" xmlns="http://www.w3.org/2000/svg" xmlns:xlink="http://www.w3.org/1999/xlink"><linearGradient id="SVGID_1_" gradientUnits="userSpaceOnUse" x1="256" x2="256" y1="391" y2="121"><stop offset="0" stop-color="#00b59c"/><stop offset="1" stop-color="#9cffac"/></linearGradient><linearGradient id="SVGID_2_" gradientUnits="userSpaceOnUse" x1="256" x2="256" y1="391" y2="121"><stop offset="0" stop-color="#9bff9d"/><stop offset=".9973" stop-color="#e2ffea"/><stop offset="1" stop-color="#e2ffea"/></linearGradient><g id="Money_2_"><g><path d="m72.9 391h366.2l72.9-73.2v-123.6l-73.2-73.2h-365.9l-72.9 72.9v124.2z" fill="url(#SVGID_1_)"/></g><g><g><path d="m15 121c-8.401 0-15 6.599-15 15v57.9c44.7 11.1 84-28.2 72.9-72.9zm-15 197.1v57.9c0 8.399 6.599 15 15 15h57.9c11.1-44.7-28.2-84-72.9-72.9zm439.1 72.9h57.9c8.401 0 15-6.601 15-15v-58.2c-44.7-10.8-84 28.5-72.9 73.2zm57.9-270h-58.2c-10.8 44.7 28.5 84 73.2 73.2v-58.2c0-8.401-6.599-15-15-15zm-392 120c-8.284 0-15 6.716-15 15s6.716 15 15 15 15-6.716 15-15-6.716-15-15-15zm302 0c-8.284 0-15 6.716-15 15s6.716 15 15 15 15-6.716 15-15-6.716-15-15-15zm-151-120c-57.891 0-105 60.557-105 135s47.109 135 105 135 105-60.557 105-135-47.109-135-105-135z" fill="url(#SVGID_2_)"/></g></g></g></svg>