<svg id="Capa_1" enable-background="new 0 0 511.893 511.893" height="512" viewBox="0 0 511.893 511.893" width="512" xmlns="http://www.w3.org/2000/svg" xmlns:xlink="http://www.w3.org/1999/xlink"><linearGradient id="SVGID_1_" gradientUnits="userSpaceOnUse" x1="255.946" x2="255.946" y1="267.663" y2="87.663"><stop offset="0" stop-color="#ffedad"/><stop offset="1" stop-color="#ffffe5"/></linearGradient><linearGradient id="lg1"><stop offset="0" stop-color="#fd5900"/><stop offset="1" stop-color="#ffde00"/></linearGradient><linearGradient id="SVGID_2_" gradientUnits="userSpaceOnUse" x1="255.946" x2="255.946" xlink:href="#lg1" y1="511.893" y2="267.663"/><linearGradient id="SVGID_3_" gradientUnits="userSpaceOnUse" x1="255.946" x2="255.946" xlink:href="#lg1" y1="177.663" y2="0"/><g><path d="m435.946 177.663-75 60-105 30-105-30-75-60 75-60 105-30 105 30z" fill="url(#SVGID_1_)"/><g><path d="m435.946 297.663v116.729c0 5.682-3.21 10.876-8.292 13.416l-165 82.5c-4.223 2.111-9.193 2.111-13.416 0l-165-82.5c-5.082-2.541-8.292-7.735-8.292-13.416v-116.729l180-30z" fill="url(#SVGID_2_)"/><g><g><path d="m25.372 253.525c-5.005 7.507-2.297 17.702 5.773 21.737l152.958 76.479c6.766 3.383 14.993 1.198 19.189-5.096l52.655-78.982-180-90zm410.574-75.862-180 90 52.655 78.982c4.196 6.294 12.423 8.479 19.189 5.096l152.958-76.479c8.07-4.035 10.777-14.23 5.773-21.737zm52.575-77.862c5.005-7.507 2.297-17.702-5.773-21.737l-152.958-76.479c-6.766-3.383-14.993-1.198-19.189 5.096l-54.655 80.982 180 90zm-287.229-93.12c-4.196-6.294-12.423-8.479-19.189-5.096l-152.959 76.48c-8.07 4.035-10.777 14.23-5.773 21.737l52.575 77.862 180-90z" fill="url(#SVGID_3_)"/></g></g></g></g></svg>