<svg id="Capa_1" enable-background="new 0 0 512 512" height="512" viewBox="0 0 512 512" width="512" xmlns="http://www.w3.org/2000/svg" xmlns:xlink="http://www.w3.org/1999/xlink"><linearGradient id="SVGID_1_" gradientUnits="userSpaceOnUse" x1="256" x2="256" y1="450.981" y2="60.981"><stop offset="0" stop-color="#5558ff"/><stop offset="1" stop-color="#00c0ff"/></linearGradient><linearGradient id="SVGID_2_" gradientUnits="userSpaceOnUse" x1="256" x2="256" y1="451.019" y2="77.781"><stop offset="0" stop-color="#addcff"/><stop offset=".5028" stop-color="#eaf6ff"/><stop offset="1" stop-color="#eaf6ff"/></linearGradient><g><path d="m497 90.981c-27.598 0-49.3-6.901-71.203-14.101-23.397-7.8-47.395-15.899-79.797-15.899-33.3 0-58.198 8.399-75 16.8l-15 85.789-15-85.789c-16.802-8.401-41.7-16.8-75-16.8-32.402 0-56.4 8.099-79.797 15.899-21.903 7.2-43.605 14.101-71.203 14.101-8.401 0-15 6.599-15 15v330c0 8.399 6.599 15 15 15 32.402 0 57.4-8.101 80.797-15.901 21.903-7.2 42.605-14.099 70.203-14.099 40.8 0 65.398 15 75 21.899l14.989-96.685 15.011 96.986c9.602-7.2 34.2-22.2 75-22.2 27.598 0 48.3 6.899 70.203 14.099 23.397 7.8 48.395 15.901 80.797 15.901 8.401 0 15-6.601 15-15v-330c0-8.401-6.599-15-15-15z" fill="url(#SVGID_1_)"/><g><g><path d="m197.963 303.061c-10.371-1.377-21.123-2.08-31.963-2.08-38.73 0-68.027 8.657-94.717 17.52-7.881 2.607-12.129 11.104-9.521 18.97 2.604 7.867 11.108 12.098 18.955 9.507 24.375-8.101 51.035-15.996 85.283-15.996 9.932 0 19.277.659 28.037 1.816 7.646.996 15.703-4.658 16.846-12.891 1.084-8.218-4.688-15.762-12.92-16.846zm0-75c-10.371-1.377-21.123-2.08-31.963-2.08-38.73 0-68.027 8.657-94.717 17.52-7.881 2.607-12.129 11.104-9.521 18.97 2.604 7.867 11.108 12.098 18.955 9.507 24.375-8.101 51.035-15.996 85.283-15.996 9.932 0 19.277.659 28.037 1.816 7.646 1.025 15.703-4.658 16.846-12.891 1.084-8.218-4.688-15.762-12.92-16.846zm0-75c-10.371-1.377-21.123-2.08-31.963-2.08-38.73 0-68.027 8.657-94.717 17.52-7.881 2.607-12.129 11.104-9.521 18.97 2.604 7.867 11.108 12.098 18.955 9.507 24.375-8.101 51.035-15.996 85.283-15.996 9.932 0 19.277.659 28.037 1.816 7.646 1.069 15.703-4.658 16.846-12.891 1.084-8.218-4.688-15.762-12.92-16.846zm242.754 165.44c-26.689-8.862-55.986-17.52-94.717-17.52-10.84 0-21.592.703-31.963 2.08-8.232 1.084-14.004 8.628-12.92 16.846 1.113 8.232 9.111 13.843 16.846 12.891 8.76-1.157 18.105-1.816 28.037-1.816 34.248 0 60.908 7.896 85.283 15.996 7.844 2.59 16.35-1.636 18.955-9.507 2.608-7.867-1.64-16.363-9.521-18.97zm0-75c-26.689-8.862-55.986-17.52-94.717-17.52-10.84 0-21.592.703-31.963 2.08-8.232 1.084-14.004 8.628-12.92 16.846 1.113 8.218 9.111 13.887 16.846 12.891 8.76-1.157 18.105-1.816 28.037-1.816 34.248 0 60.908 7.896 85.283 15.996 7.844 2.59 16.35-1.636 18.955-9.507 2.608-7.867-1.64-16.363-9.521-18.97zm-122.754-60.703c8.76-1.157 18.105-1.816 28.037-1.816 34.248 0 60.908 7.896 85.283 15.996 7.844 2.59 16.35-1.636 18.955-9.507 2.607-7.866-1.641-16.362-9.521-18.97-26.689-8.862-55.986-17.52-94.717-17.52-10.84 0-21.592.703-31.963 2.08-8.232 1.084-14.004 8.628-12.92 16.846 1.113 8.232 9.112 13.916 16.846 12.891zm-76.963-105.017v365.1c2.703 2.1 4.2 3.6 4.501 3.6 5.702 6 15.297 6 20.999.301.3-.301 1.798-1.8 4.501-3.6v-365.4c-5.999 3.3-11.1 6.299-15 9-3.901-2.702-9.002-5.701-15.001-9.001z" fill="url(#SVGID_2_)"/></g></g></g></svg>