<svg id="Capa_1" enable-background="new 0 0 512 512" height="512" viewBox="0 0 512 512" width="512" xmlns="http://www.w3.org/2000/svg" xmlns:xlink="http://www.w3.org/1999/xlink"><linearGradient id="SVGID_1_" gradientUnits="userSpaceOnUse" x1="256" x2="256" y1="512" y2="0"><stop offset="0" stop-color="#fd3a84"/><stop offset="1" stop-color="#ffa68d"/></linearGradient><linearGradient id="SVGID_2_" gradientUnits="userSpaceOnUse" x1="256" x2="256" y1="452" y2="60"><stop offset="0" stop-color="#ffc2cc"/><stop offset="1" stop-color="#fff2f4"/></linearGradient><g><g><g><path d="m436 0h-360c-24.814 0-45 20.186-45 45v422c0 24.814 20.186 45 45 45h360c24.814 0 45-20.186 45-45v-422c0-24.814-20.186-45-45-45z" fill="url(#SVGID_1_)"/></g></g><g><g><path d="m406 60h-300c-8.291 0-15 6.709-15 15v120c0 8.291 6.709 15 15 15h300c8.291 0 15-6.709 15-15v-120c0-8.291-6.709-15-15-15zm-240 182h-60c-8.291 0-15 6.709-15 15v60c0 8.291 6.709 15 15 15h60c8.291 0 15-6.709 15-15v-60c0-8.291-6.709-15-15-15zm60 90h60c8.291 0 15-6.709 15-15v-60c0-8.291-6.709-15-15-15h-60c-8.291 0-15 6.709-15 15v60c0 8.291 6.709 15 15 15zm180-90h-60c-8.291 0-15 6.709-15 15v60c0 8.291 6.709 15 15 15h60c8.291 0 15-6.709 15-15v-60c0-8.291-6.709-15-15-15zm-240 120h-60c-8.291 0-15 6.709-15 15v60c0 8.291 6.709 15 15 15h60c8.291 0 15-6.709 15-15v-60c0-8.291-6.709-15-15-15zm240 0h-180c-8.291 0-15 6.709-15 15v60c0 8.291 6.709 15 15 15h180c8.291 0 15-6.709 15-15v-60c0-8.291-6.709-15-15-15z" fill="url(#SVGID_2_)"/></g></g></g></svg>