<svg id="Capa_1" enable-background="new 0 0 512 512" height="512" viewBox="0 0 512 512" width="512" xmlns="http://www.w3.org/2000/svg" xmlns:xlink="http://www.w3.org/1999/xlink"><linearGradient id="lg1"><stop offset="0" stop-color="#ffc2cc"/><stop offset="1" stop-color="#fff2f4"/></linearGradient><linearGradient id="SVGID_1_" gradientUnits="userSpaceOnUse" x1="76" x2="76" xlink:href="#lg1" y1="136" y2="76"/><linearGradient id="lg2"><stop offset="0" stop-color="#fd3a84"/><stop offset="1" stop-color="#ffa68d"/></linearGradient><linearGradient id="SVGID_2_" gradientUnits="userSpaceOnUse" x1="256" x2="256" xlink:href="#lg2" y1="466" y2="46"/><linearGradient id="SVGID_3_" gradientUnits="userSpaceOnUse" x1="256" x2="256" xlink:href="#lg1" y1="406" y2="136"/><linearGradient id="SVGID_4_" gradientUnits="userSpaceOnUse" x1="256" x2="256" xlink:href="#lg2" y1="346" y2="196"/><linearGradient id="SVGID_5_" gradientUnits="userSpaceOnUse" x1="436" x2="436" xlink:href="#lg1" y1="196" y2="166"/><g><path d="m76 136c-8.284 0-15-6.716-15-15v-30c0-8.284 6.716-15 15-15s15 6.716 15 15v30c0 8.284-6.716 15-15 15z" fill="url(#SVGID_1_)"/><path d="m497 466h-482c-8.284 0-15-6.716-15-15v-330c0-8.284 6.716-15 15-15h111.729l25.854-51.708c2.541-5.082 7.735-8.292 13.417-8.292h180c5.682 0 10.876 3.21 13.416 8.292l25.855 51.708h111.729c8.284 0 15 6.716 15 15v330c0 8.284-6.716 15-15 15z" fill="url(#SVGID_2_)"/><path d="m256 406c-74.439 0-135-60.561-135-135s60.561-135 135-135 135 60.561 135 135-60.561 135-135 135z" fill="url(#SVGID_3_)"/><path d="m256 346c-41.355 0-75-33.645-75-75s33.645-75 75-75 75 33.645 75 75-33.645 75-75 75z" fill="url(#SVGID_4_)"/><circle cx="436" cy="181" fill="url(#SVGID_5_)" r="15"/></g></svg>