<svg id="Capa_1" enable-background="new 0 0 512 512" height="512" viewBox="0 0 512 512" width="512" xmlns="http://www.w3.org/2000/svg" xmlns:xlink="http://www.w3.org/1999/xlink"><linearGradient id="SVGID_1_" gradientUnits="userSpaceOnUse" x1="256" x2="256" y1="481" y2="91"><stop offset="0" stop-color="#5558ff"/><stop offset="1" stop-color="#00c0ff"/></linearGradient><linearGradient id="SVGID_2_" gradientUnits="userSpaceOnUse" x1="256" x2="256" y1="421" y2="31"><stop offset="0" stop-color="#addcff"/><stop offset=".5028" stop-color="#eaf6ff"/><stop offset="1" stop-color="#eaf6ff"/></linearGradient><g><g><g><path d="m76 121h210c8.401 0 15-6.599 15-15s-6.599-15-15-15h-210c-8.401 0-15 6.599-15 15s6.599 15 15 15zm195 15-271 30v300c0 8.401 6.599 15 15 15h482c8.401 0 15-6.599 15-15v-300z" fill="url(#SVGID_1_)"/></g></g><g><g><path d="m497 31h-482c-8.401 0-15 6.599-15 15v120h512v-120c0-8.401-6.599-15-15-15zm-391 90h-30c-8.401 0-15-6.599-15-15s6.599-15 15-15h30c8.401 0 15 6.599 15 15s-6.599 15-15 15zm90 0h-30c-8.401 0-15-6.599-15-15s6.599-15 15-15h30c8.401 0 15 6.599 15 15s-6.599 15-15 15zm90 0h-30c-8.401 0-15-6.599-15-15s6.599-15 15-15h30c8.401 0 15 6.599 15 15s-6.599 15-15 15zm120 210h-120c-8.291 0-15 6.709-15 15s6.709 15 15 15h120c8.291 0 15-6.709 15-15s-6.709-15-15-15zm0 60h-300c-8.291 0-15 6.709-15 15s6.709 15 15 15h300c8.291 0 15-6.709 15-15s-6.709-15-15-15zm-300-30h120c8.291 0 15-6.709 15-15v-120c0-8.291-6.709-15-15-15h-120c-8.291 0-15 6.709-15 15v120c0 8.291 6.709 15 15 15zm300-90h-120c-8.291 0-15 6.709-15 15s6.709 15 15 15h120c8.291 0 15-6.709 15-15s-6.709-15-15-15zm0-60h-120c-8.291 0-15 6.709-15 15s6.709 15 15 15h120c8.291 0 15-6.709 15-15s-6.709-15-15-15z" fill="url(#SVGID_2_)"/></g></g></g></svg>