<svg id="Capa_1" enable-background="new 0 0 512 512" height="512" viewBox="0 0 512 512" width="512" xmlns="http://www.w3.org/2000/svg" xmlns:xlink="http://www.w3.org/1999/xlink"><linearGradient id="SVGID_1_" gradientUnits="userSpaceOnUse" x1="256" x2="256" y1="466" y2="46"><stop offset="0" stop-color="#5558ff"/><stop offset="1" stop-color="#00c0ff"/></linearGradient><linearGradient id="SVGID_2_" gradientUnits="userSpaceOnUse" x1="225.5" x2="225.5" y1="406" y2="76"><stop offset="0" stop-color="#addcff"/><stop offset=".5028" stop-color="#eaf6ff"/><stop offset="1" stop-color="#eaf6ff"/></linearGradient><g><g><g><path d="m497 106h-51.698l-25.847-51.685c-2.549-5.096-7.757-8.315-13.455-8.315h-180c-5.698 0-10.906 3.219-13.455 8.315l-25.847 51.685h-96.698l-15-15-15 15h-45c-8.284 0-15 6.716-15 15v60l30 30v150l-30 30v60c0 8.284 6.716 15 15 15h482c8.284 0 15-6.716 15-15v-330c0-8.284-6.716-15-15-15z" fill="url(#SVGID_1_)"/></g></g><g><g><path d="m90 91c0-8.401-6.599-15-15-15s-15 6.599-15 15v15h30zm226 45c-74.399 0-135 60.601-135 135s60.601 135 135 135 135-60.601 135-135-60.601-135-135-135zm0 210c-41.4 0-75-33.6-75-75s33.6-75 75-75 75 33.6 75 75-33.6 75-75 75zm-226-165h-90v210h90c8.284 0 15-6.716 15-15v-180c0-8.284-6.716-15-15-15z" fill="url(#SVGID_2_)"/></g></g></g></svg>