<svg id="Capa_1" enable-background="new 0 0 512 512" height="512" viewBox="0 0 512 512" width="512" xmlns="http://www.w3.org/2000/svg" xmlns:xlink="http://www.w3.org/1999/xlink"><linearGradient id="SVGID_1_" gradientUnits="userSpaceOnUse" x1="256" x2="256" y1="512" y2="0"><stop offset="0" stop-color="#00b59c"/><stop offset="1" stop-color="#9cffac"/></linearGradient><g id="Puzzle_2_"><g><path d="m256 512c-33.091 0-60-26.909-60-60 0-7.485 1.406-18.179 3.853-30h-108.853c-8.291 0-15-6.709-15-15v-113.925c0-4.688 2.183-9.097 5.918-11.938 3.735-2.813 8.569-3.75 13.081-2.52 18.311 5.069 34.087 7.383 41.001 7.383 16.538 0 30-13.462 30-30s-13.462-30-30-30c-6.914 0-22.69 2.314-41.001 7.383-4.541 1.245-9.36.322-13.081-2.52-3.735-2.842-5.918-7.251-5.918-11.938v-113.925c0-8.291 6.709-15 15-15h108.853c-2.447-11.821-3.853-22.515-3.853-30 0-33.091 26.909-60 60-60s60 26.909 60 60c0 7.485-1.406 18.179-3.853 30h108.853c8.291 0 15 6.709 15 15v113.925c0 4.688-2.183 9.097-5.918 11.938-3.691 2.842-8.525 3.779-13.081 2.52-18.311-5.069-34.087-7.383-41.001-7.383-16.538 0-30 13.462-30 30s13.462 30 30 30c6.914 0 22.69-2.314 41.001-7.383 4.541-1.26 9.36-.308 13.081 2.52 3.735 2.842 5.918 7.251 5.918 11.938v113.925c0 8.291-6.709 15-15 15h-108.853c2.446 11.821 3.853 22.515 3.853 30 0 33.091-26.909 60-60 60z" fill="url(#SVGID_1_)"/></g></g></svg>