<svg id="Capa_1" enable-background="new 0 0 512 512" height="512" viewBox="0 0 512 512" width="512" xmlns="http://www.w3.org/2000/svg" xmlns:xlink="http://www.w3.org/1999/xlink"><linearGradient id="SVGID_1_" gradientUnits="userSpaceOnUse" x1="256" x2="256" y1="481" y2="31"><stop offset="0" stop-color="#fd5900"/><stop offset="1" stop-color="#ffde00"/></linearGradient><linearGradient id="SVGID_2_" gradientUnits="userSpaceOnUse" x1="316" x2="316" y1="421" y2="31"><stop offset="0" stop-color="#ffe59a"/><stop offset="1" stop-color="#ffffd5"/></linearGradient><g id="Product_2_"><path d="m497 31h-166v45c0 6-3.6 11.4-9.3 13.799-1.8.901-3.9 1.201-5.7 1.201-3.9 0-7.8-1.5-10.499-4.501l-49.501-49.2-49.501 49.2c-4.199 4.501-10.499 5.7-16.199 3.3-5.7-2.399-9.3-7.799-9.3-13.799v-45h-166c-8.401 0-15 6.599-15 15v420c0 8.399 6.599 15 15 15h482c8.401 0 15-6.601 15-15v-420c0-8.401-6.599-15-15-15z" fill="url(#SVGID_1_)"/><g><g><path d="m331 31h-150v195c0 6 3.6 11.4 9.3 13.799 5.7 2.4 12.001 1.201 16.199-3.3l49.501-49.2 49.501 49.2c2.699 3.001 6.599 4.501 10.499 4.501 1.8 0 3.9-.3 5.7-1.201 5.7-2.399 9.3-7.799 9.3-13.799zm15 330h90c8.291 0 15-6.709 15-15s-6.709-15-15-15h-90c-8.291 0-15 6.709-15 15s6.709 15 15 15zm90 30h-90c-8.291 0-15 6.709-15 15s6.709 15 15 15h90c8.291 0 15-6.709 15-15s-6.709-15-15-15z" fill="url(#SVGID_2_)"/></g></g></g></svg>