<svg id="Capa_1" enable-background="new 0 0 512 512" height="512" viewBox="0 0 512 512" width="512" xmlns="http://www.w3.org/2000/svg" xmlns:xlink="http://www.w3.org/1999/xlink"><linearGradient id="SVGID_1_" gradientUnits="userSpaceOnUse" x1="256" x2="256" y1="512" y2="26.169"><stop offset="0" stop-color="#fd5900"/><stop offset="1" stop-color="#ffde00"/></linearGradient><linearGradient id="lg1"><stop offset="0" stop-color="#ffe59a"/><stop offset="1" stop-color="#ffffd5"/></linearGradient><linearGradient id="SVGID_2_" gradientUnits="userSpaceOnUse" x1="256" x2="256" xlink:href="#lg1" y1="270" y2="0"/><linearGradient id="SVGID_3_" gradientUnits="userSpaceOnUse" x1="256" x2="256" xlink:href="#lg1" y1="512" y2="330"/><linearGradient id="SVGID_4_" gradientUnits="userSpaceOnUse" x1="256" x2="256" xlink:href="#lg1" y1="300" y2="150"/><g><g><path d="m256 26.169-226 225.063v245.768c0 8.284 6.716 15 15 15h422c8.284 0 15-6.716 15-15v-245.768z" fill="url(#SVGID_1_)"/></g><path d="m486.415 265.629-230.415-229.46-230.416 229.46c-5.871 5.845-15.369 5.826-21.213-.044-5.846-5.87-5.826-15.367.044-21.213l241-240c5.853-5.829 15.316-5.829 21.169 0l241 240c5.87 5.846 5.89 15.343.044 21.213-5.845 5.87-15.342 5.889-21.213.044z" fill="url(#SVGID_2_)"/><path d="m316 330h-120c-8.284 0-15 6.716-15 15v167h150v-167c0-8.284-6.716-15-15-15z" fill="url(#SVGID_3_)"/><path d="m256 300c-41.355 0-75-33.645-75-75s33.645-75 75-75 75 33.645 75 75-33.645 75-75 75z" fill="url(#SVGID_4_)"/></g></svg>