<svg id="Capa_1" enable-background="new 0 0 512 512" height="512" viewBox="0 0 512 512" width="512" xmlns="http://www.w3.org/2000/svg" xmlns:xlink="http://www.w3.org/1999/xlink"><linearGradient id="lg1"><stop offset="0" stop-color="#a93aff"/><stop offset="1" stop-color="#ff81ff"/></linearGradient><linearGradient id="SVGID_1_" gradientUnits="userSpaceOnUse" x1="173" x2="173" xlink:href="#lg1" y1="286.002" y2="45.999"/><linearGradient id="SVGID_2_" gradientUnits="userSpaceOnUse" x1="339" x2="339" xlink:href="#lg1" y1="466.001" y2="226.004"/><g id="Traffic_building_2_"><g><path d="m151 270.994v-45h-136c-8.291 0-15-6.709-15-15v-90c0-8.291 6.709-15 15-15h136v-45c0-5.479 2.988-10.518 7.778-13.154 4.819-2.622 10.649-2.432 15.278.498l165 105c4.321 2.754 6.943 7.529 6.943 12.656s-2.622 9.902-6.943 12.656l-165 105c-10.026 6.326-23.056-.853-23.056-12.656z" fill="url(#SVGID_1_)"/></g><g><path d="m337.943 463.65-165-105c-4.321-2.754-6.943-7.529-6.943-12.656s2.622-9.902 6.943-12.656l165-105c4.614-2.915 10.474-3.12 15.278-.498 4.79 2.637 7.778 7.676 7.778 13.154v45h136c8.291 0 15 6.709 15 15v90c0 8.291-6.709 15-15 15h-135.999v45c0 11.851-13.06 18.963-23.057 12.656z" fill="url(#SVGID_2_)"/></g></g></svg>