<svg id="Capa_1" enable-background="new 0 0 512 512" height="512" viewBox="0 0 512 512" width="512" xmlns="http://www.w3.org/2000/svg" xmlns:xlink="http://www.w3.org/1999/xlink"><linearGradient id="lg1"><stop offset="0" stop-color="#5558ff"/><stop offset="1" stop-color="#00c0ff"/></linearGradient><linearGradient id="SVGID_1_" gradientUnits="userSpaceOnUse" x1="256" x2="256" xlink:href="#lg1" y1="481" y2="84.152"/><linearGradient id="lg2"><stop offset="0" stop-color="#addcff"/><stop offset=".5028" stop-color="#eaf6ff"/><stop offset="1" stop-color="#eaf6ff"/></linearGradient><linearGradient id="SVGID_2_" gradientUnits="userSpaceOnUse" x1="256" x2="256" xlink:href="#lg2" y1="136" y2="31"/><linearGradient id="SVGID_3_" gradientUnits="userSpaceOnUse" x1="137" x2="137" xlink:href="#lg1" y1="91" y2="31"/><linearGradient id="SVGID_4_" gradientUnits="userSpaceOnUse" x1="302.02" x2="302.02" xlink:href="#lg2" y1="406" y2="196"/><path d="m512 256v-120l-264.783-51.848-247.217 51.848v330c0 8.399 6.599 15 15 15h482c8.401 0 15-6.601 15-15v-120h-30v-90z" fill="url(#SVGID_1_)"/><g id="Web_design_3_"><g><path d="m512 46v90h-512v-90c0-8.401 6.599-15 15-15h47v15c0 8.399 6.599 15 15 15s15-6.601 15-15v-15h30v15c0 8.399 6.599 15 15 15s15-6.601 15-15v-15h30v15c0 8.399 6.599 15 15 15s15-6.601 15-15v-15h285c8.401 0 15 6.599 15 15z" fill="url(#SVGID_2_)"/></g><g><g><path d="m62 76c0 8.399 6.599 15 15 15s15-6.601 15-15v-45h-30zm60 0c0 8.399 6.599 15 15 15s15-6.601 15-15v-45h-30zm60-45v45c0 8.399 6.599 15 15 15s15-6.601 15-15v-45z" fill="url(#SVGID_3_)"/></g></g><path d="m512 256v90h-145.8c-16.8 36-53.401 60-94.2 60-74.7 0-170.4-75-174.3-78.3-5.099-3.9-6.899-10.501-4.799-16.501 2.098-6.299 7.798-10.199 14.099-10.199 39.6 0 57.9-23.401 79.2-50.4 20.1-25.501 42.6-54.6 85.8-54.6 40.499 0 77.1 23.699 94.2 60z" fill="url(#SVGID_4_)"/></g></svg>