<svg id="Capa_1" enable-background="new 0 0 512 512" height="512" viewBox="0 0 512 512" width="512" xmlns="http://www.w3.org/2000/svg" xmlns:xlink="http://www.w3.org/1999/xlink"><linearGradient id="lg1"><stop offset="0" stop-color="#5558ff"/><stop offset="1" stop-color="#00c0ff"/></linearGradient><linearGradient id="SVGID_1_" gradientUnits="userSpaceOnUse" x1="211" x2="211" xlink:href="#lg1" y1="226" y2="16"/><linearGradient id="SVGID_2_" gradientUnits="userSpaceOnUse" x1="301" x2="301" xlink:href="#lg1" y1="496" y2="286"/><linearGradient id="lg2"><stop offset="0" stop-color="#addcff"/><stop offset=".5028" stop-color="#eaf6ff"/><stop offset="1" stop-color="#eaf6ff"/></linearGradient><linearGradient id="SVGID_3_" gradientUnits="userSpaceOnUse" x1="407" x2="407" xlink:href="#lg2" y1="226" y2="16"/><linearGradient id="SVGID_4_" gradientUnits="userSpaceOnUse" x1="105" x2="105" xlink:href="#lg2" y1="496" y2="286"/><g><path d="m407 16h-302c-57.897 0-105 47.103-105 105s47.103 105 105 105h302c8.284 0 15-6.716 15-15v-180c0-8.284-6.716-15-15-15z" fill="url(#SVGID_1_)"/><path d="m407 286h-302c-8.284 0-15 6.716-15 15v180c0 8.284 6.716 15 15 15h302c57.897 0 105-47.103 105-105s-47.103-105-105-105z" fill="url(#SVGID_2_)"/><path d="m407 226c-57.897 0-105-47.103-105-105s47.103-105 105-105 105 47.103 105 105-47.103 105-105 105z" fill="url(#SVGID_3_)"/><path d="m105 496c-57.897 0-105-47.103-105-105s47.103-105 105-105 105 47.103 105 105-47.103 105-105 105z" fill="url(#SVGID_4_)"/></g></svg>