<svg id="Capa_1" enable-background="new 0 0 512.011 512.011" height="512" viewBox="0 0 512.011 512.011" width="512" xmlns="http://www.w3.org/2000/svg" xmlns:xlink="http://www.w3.org/1999/xlink"><linearGradient id="SVGID_1_" gradientUnits="userSpaceOnUse" x1="256.005" x2="256.005" y1="512.009" y2="339.919"><stop offset="0" stop-color="#c3ffe8"/><stop offset=".9973" stop-color="#f0fff4"/></linearGradient><linearGradient id="SVGID_2_" gradientUnits="userSpaceOnUse" x1="256.005" x2="256.005" y1="360.002" y2=".002"><stop offset="0" stop-color="#00b59c"/><stop offset="1" stop-color="#9cffac"/></linearGradient><g><g><g><path d="m510.834 491.157-34.688-82.104c-1.377-3.208-3.809-5.845-6.914-7.456l-116.312-59.971c-4.805-2.534-10.635-2.212-15.234.82l-81.68 54.448-81.68-54.448c-4.658-3.105-10.576-3.354-15.469-.718-.703.396-72.924 38.892-115.756 59.692-3.252 1.582-5.83 4.307-7.266 7.661l-34.658 82.09c-2.402 5.684-1.055 12.261 3.369 16.567 4.343 4.276 10.933 5.49 16.641 2.93l126.771-56.88 100.723 56.309c4.57 2.549 10.078 2.549 14.648 0l100.723-56.309 126.771 56.88c5.654 2.534 12.246 1.377 16.641-2.93 4.424-4.305 5.772-10.883 3.37-16.581z" fill="url(#SVGID_1_)"/></g></g><path d="m256.006.002c-74.443 0-135 60.557-135 135 0 27.715 8.35 54.36 24.141 77.065l98.555 141.504c2.813 4.028 7.412 6.431 12.305 6.431s9.492-2.402 12.305-6.431l98.555-141.504c15.791-22.705 24.141-49.351 24.141-77.065-.002-74.443-60.559-135-135.002-135zm0 195c-33.076 0-60-26.909-60-60s26.924-60 60-60 60 26.909 60 60-26.924 60-60 60z" fill="url(#SVGID_2_)"/></g></svg>