<svg id="Capa_1" enable-background="new 0 0 512 512" height="512" viewBox="0 0 512 512" width="512" xmlns="http://www.w3.org/2000/svg" xmlns:xlink="http://www.w3.org/1999/xlink"><linearGradient id="SVGID_1_" gradientUnits="userSpaceOnUse" x1="240.62" x2="240.62" y1="512" y2="0"><stop offset="0" stop-color="#5558ff"/><stop offset="1" stop-color="#00c0ff"/></linearGradient><linearGradient id="SVGID_2_" gradientUnits="userSpaceOnUse" x1="265.615" x2="265.615" y1="435.491" y2="17.8"><stop offset="0" stop-color="#addcff"/><stop offset=".5028" stop-color="#eaf6ff"/><stop offset="1" stop-color="#eaf6ff"/></linearGradient><g><g><path d="m256 512c-68.114 0-132.328-26.702-180.813-75.187-48.485-48.485-75.187-112.699-75.187-180.813 0-34.625 6.876-68.256 20.439-99.96 2.451-5.729 8.193-9.354 14.414-9.087 6.226.259 11.643 4.339 13.61 10.251l13.193 39.652 24.583 16.389 4.834-48.726c.509-5.126 3.612-9.633 8.22-11.936l55.268-27.625 13.252-29.172c1.607-3.537 4.523-6.313 8.135-7.743l24.789-9.814-44.437-33.444c-4.311-3.245-6.547-8.554-5.856-13.905.69-5.351 4.202-9.919 9.196-11.962 30.675-12.553 63.096-18.918 96.36-18.918 92.242 0 177.812 50.276 223.315 131.209 2.181 3.878 2.527 8.525.945 12.684s-4.929 7.401-9.136 8.85l-53.02 18.26c-2.361.813-4.889 1.025-7.351.613l-49.66-8.28c-4.088-.682-7.712-3.025-10.012-6.473l-9.068-13.596-57.058 29.94 34.512 8.199c3.771.896 7.048 3.216 9.146 6.475l16.909 26.268 22.668-5.67c4.1-1.027 8.443-.274 11.959 2.07l24.83 16.55c4.174 2.782 6.681 7.466 6.681 12.482v27.243l43.93 47.57c2.559 2.771 3.98 6.405 3.98 10.177v81.07c0 3.394-1.151 6.688-3.265 9.343-23.507 29.527-53.731 53.947-87.405 70.622-35.369 17.513-73.355 26.394-112.9 26.394z" fill="url(#SVGID_1_)"/></g><g><g><path d="m479.313 131.205c-3.552-6.313-11.108-9.186-17.957-6.827l-49.422 17.021-39.499-6.586-12.956-19.426c-4.258-6.386-12.652-8.526-19.449-4.96l-104.49 54.83c-5.539 2.907-8.693 8.946-7.913 15.153s5.33 11.278 11.416 12.724l67.614 16.064 19.46 30.231c3.479 5.405 10.016 7.994 16.253 6.432l26.663-6.67 12.627 8.417v25.081c0 3.772 1.421 7.406 3.98 10.177l43.93 47.57v75.204c0 6.377 4.031 12.056 10.051 14.16 1.622.567 3.292.841 4.946.841 4.482 0 8.835-2.013 11.737-5.657 17.663-22.182 31.424-46.877 40.902-73.401 9.817-27.47 14.794-56.264 14.794-85.583 0-43.635-11.303-86.788-32.687-124.795zm-228.69 150.426-46.843-9.372-39.541-43.49c-2.889-3.178-7.001-4.953-11.297-4.908l-37.658.498 4.826-48.642 52.617-26.3c3.075-1.537 5.528-4.083 6.95-7.213l12.946-28.496 44.029-17.431c5.045-1.997 8.618-6.564 9.344-11.941s-1.51-10.728-5.845-13.99l-65.81-49.53c-4.225-3.18-9.812-3.901-14.706-1.896-62.096 25.433-112.832 75.414-139.199 137.127-1.44 3.37-1.596 7.151-.439 10.629l14.82 44.54c1.054 3.168 3.135 5.893 5.913 7.745l42.97 28.647v32.182c0 3.906 1.523 7.658 4.247 10.458l37.143 38.193v42.389c0 3.509 1.23 6.907 3.477 9.602l41.38 49.66c2.906 3.488 7.159 5.398 11.526 5.398 1.708 0 3.434-.292 5.103-.896 5.938-2.15 9.894-7.789 9.894-14.104v-33.88l27.109-20.33c3.777-2.833 6-7.279 6-12v-18.618l28.708-28.717c3.911-3.912 5.351-9.658 3.748-14.952-1.602-5.295-5.988-9.276-11.412-10.362z" fill="url(#SVGID_2_)"/></g></g></g></svg>