<svg id="Capa_1" enable-background="new 0 0 512 512" height="512" viewBox="0 0 512 512" width="512" xmlns="http://www.w3.org/2000/svg" xmlns:xlink="http://www.w3.org/1999/xlink"><linearGradient id="SVGID_1_" gradientUnits="userSpaceOnUse" x1="256" x2="256" y1="331" y2="0"><stop offset="0" stop-color="#addcff"/><stop offset=".5028" stop-color="#eaf6ff"/><stop offset="1" stop-color="#eaf6ff"/></linearGradient><linearGradient id="SVGID_2_" gradientUnits="userSpaceOnUse" x1="256" x2="256" y1="512" y2="211"><stop offset="0" stop-color="#5558ff"/><stop offset="1" stop-color="#00c0ff"/></linearGradient><g><path d="m450.253 154.899c1.181-6.914 1.747-13.435 1.747-19.899 0-35.98-14.256-69.888-40.142-95.48-25.778-25.485-59.821-39.52-95.858-39.52-47.536 0-91.507 25.503-115.712 66.05-11.195-4.02-22.677-6.05-34.288-6.05-55.042 0-100.42 41.775-105.523 94.996-35.664 12.459-60.477 46.875-60.477 86.004 0 49.626 40.374 90 90 90h332c49.626 0 90-40.374 90-90 0-39.47-25.634-74.023-61.747-86.101z" fill="url(#SVGID_1_)"/><path d="m256 512c-4.742 0-9.206-2.243-12.036-6.048l-90-121c-3.384-4.55-3.914-10.62-1.367-15.687 2.546-5.067 7.732-8.265 13.403-8.265h45v-135c0-8.284 6.716-15 15-15h60c8.284 0 15 6.716 15 15v135h45c5.671 0 10.857 3.198 13.403 8.265s2.017 11.137-1.367 15.687l-90 121c-2.83 3.805-7.294 6.048-12.036 6.048z" fill="url(#SVGID_2_)"/></g></svg>