<svg id="Capa_1" enable-background="new 0 0 512.002 512.002" height="512" viewBox="0 0 512.002 512.002" width="512" xmlns="http://www.w3.org/2000/svg" xmlns:xlink="http://www.w3.org/1999/xlink"><linearGradient id="SVGID_1_" gradientUnits="userSpaceOnUse" x1="256.001" x2="256.001" y1="421.001" y2="91.001"><stop offset="0" stop-color="#ffc2cc"/><stop offset="1" stop-color="#fff2f4"/></linearGradient><linearGradient id="SVGID_2_" gradientUnits="userSpaceOnUse" x1="256.001" x2="256.001" y1="301.001" y2="91.001"><stop offset="0" stop-color="#fd3a84"/><stop offset="1" stop-color="#ffa68d"/></linearGradient><g><path d="m497.001 421.001h-482c-8.284 0-15-6.716-15-15v-300c0-8.284 6.716-15 15-15l239 32 243-32c8.284 0 15 6.716 15 15v300c0 8.284-6.716 15-15 15z" fill="url(#SVGID_1_)"/><g><path d="m256.001 301.001c-3.157 0-6.314-.994-8.976-2.982l-241-180c-5.178-3.867-7.297-10.615-5.26-16.747 2.038-6.132 7.773-10.271 14.235-10.271h482c6.462 0 12.197 4.138 14.235 10.271 2.037 6.132-.082 12.88-5.26 16.747l-241 180c-2.659 1.988-5.817 2.982-8.974 2.982z" fill="url(#SVGID_2_)"/></g></g></svg>