<svg id="Capa_1" enable-background="new 0 0 512.002 512.002" height="512" viewBox="0 0 512.002 512.002" width="512" xmlns="http://www.w3.org/2000/svg" xmlns:xlink="http://www.w3.org/1999/xlink"><linearGradient id="lg1"><stop offset="0" stop-color="#5558ff"/><stop offset="1" stop-color="#00c0ff"/></linearGradient><linearGradient id="SVGID_1_" gradientUnits="userSpaceOnUse" x1="81.547" x2="81.547" xlink:href="#lg1" y1="361.002" y2="151.002"/><linearGradient id="SVGID_2_" gradientUnits="userSpaceOnUse" x1="233.547" x2="233.547" y1="512.002" y2="0"><stop offset="0" stop-color="#addcff"/><stop offset=".5028" stop-color="#eaf6ff"/><stop offset="1" stop-color="#eaf6ff"/></linearGradient><linearGradient id="SVGID_3_" gradientUnits="userSpaceOnUse" x1="470.641" x2="470.641" xlink:href="#lg1" y1="398.281" y2="113.723"/><linearGradient id="SVGID_4_" gradientUnits="userSpaceOnUse" x1="393.842" x2="393.842" xlink:href="#lg1" y1="334.642" y2="177.362"/><g><path d="m135.047 361.002h-120c-8.284 0-15-6.716-15-15v-180c0-8.284 6.716-15 15-15h120l28 101z" fill="url(#SVGID_1_)"/><path d="m323.427 1.422c-5.27-2.47-11.48-1.68-15.96 2.04l-172.42 147.54v210l172.42 147.54c4.409 3.656 10.58 4.546 15.96 2.04 5.26-2.48 8.62-7.77 8.62-13.58v-482c0-5.81-3.36-11.1-8.62-13.58z" fill="url(#SVGID_2_)"/><path d="m444.326 398.281c-3.839 0-7.678-1.464-10.606-4.394-5.858-5.858-5.858-15.355 0-21.213 64.333-64.333 64.333-169.012 0-233.346-5.858-5.858-5.858-15.355 0-21.213 5.857-5.857 15.355-5.858 21.213 0 76.03 76.03 76.03 199.741 0 275.771-2.929 2.931-6.768 4.395-10.607 4.395z" fill="url(#SVGID_3_)"/><path d="m380.687 334.642c-3.839 0-7.678-1.464-10.606-4.394-5.858-5.858-5.858-15.355 0-21.213 29.242-29.243 29.242-76.824 0-106.066-5.858-5.858-5.858-15.355 0-21.213 5.857-5.858 15.355-5.858 21.213 0 40.939 40.939 40.939 107.553 0 148.492-2.93 2.929-6.769 4.394-10.607 4.394z" fill="url(#SVGID_4_)"/></g></svg>