<svg id="Capa_1" enable-background="new 0 0 512 512" height="512" viewBox="0 0 512 512" width="512" xmlns="http://www.w3.org/2000/svg" xmlns:xlink="http://www.w3.org/1999/xlink"><linearGradient id="SVGID_1_" gradientUnits="userSpaceOnUse" x1="255.5" x2="255.5" y1="512" y2="0"><stop offset="0" stop-color="#addcff"/><stop offset=".5028" stop-color="#eaf6ff"/><stop offset="1" stop-color="#eaf6ff"/></linearGradient><linearGradient id="SVGID_2_" gradientUnits="userSpaceOnUse" x1="256" x2="256" y1="482" y2="90"><stop offset="0" stop-color="#5558ff"/><stop offset="1" stop-color="#00c0ff"/></linearGradient><g><g><g><path d="m481 120h-225-226v332h45 361 45zm-421 347v30c0 8.291 6.709 15 15 15s15-6.709 15-15v-30c0-8.291-6.709-15-15-15s-15 6.709-15 15zm361 0v30c0 8.291 6.709 15 15 15s15-6.709 15-15v-30c0-8.291-6.709-15-15-15s-15 6.709-15 15zm-64.395-441.395c5.859-5.859 5.859-15.352 0-21.211s-15.352-5.859-21.211 0l-79.394 79.395-79.395-79.394c-5.859-5.859-15.352-5.859-21.211 0s-5.859 15.352 0 21.211l90 90c2.93 2.93 6.768 4.395 10.605 4.395s7.676-1.465 10.605-4.395z" fill="url(#SVGID_1_)"/></g></g><path d="m497 90h-482c-8.401 0-15 6.599-15 15v362c0 8.399 6.599 15 15 15h482c8.401 0 15-6.601 15-15v-362c0-8.401-6.599-15-15-15zm-106 287c0 24.899-20.098 45-45 45h-241c-24.902 0-45-20.101-45-45v-182c0-24.901 20.098-45 45-45h241c24.902 0 45 20.099 45 45zm45-137c-8.401 0-15-6.601-15-15 0-8.401 6.599-15 15-15s15 6.599 15 15c0 8.399-6.599 15-15 15zm0-60c-8.401 0-15-6.601-15-15 0-8.401 6.599-15 15-15s15 6.599 15 15c0 8.399-6.599 15-15 15z" fill="url(#SVGID_2_)"/></g></svg>