<svg id="Capa_1" enable-background="new 0 0 512 512" height="512" viewBox="0 0 512 512" width="512" xmlns="http://www.w3.org/2000/svg" xmlns:xlink="http://www.w3.org/1999/xlink"><linearGradient id="lg1"><stop offset="0" stop-color="#9bff9d"/><stop offset=".9973" stop-color="#e2ffea"/><stop offset="1" stop-color="#e2ffea"/></linearGradient><linearGradient id="SVGID_1_" gradientUnits="userSpaceOnUse" x1="256" x2="256" xlink:href="#lg1" y1="90" y2="0"/><linearGradient id="lg2"><stop offset="0" stop-color="#00b59c"/><stop offset="1" stop-color="#9cffac"/></linearGradient><linearGradient id="SVGID_2_" gradientUnits="userSpaceOnUse" x1="256" x2="256" xlink:href="#lg2" y1="199" y2="60"/><linearGradient id="SVGID_3_" gradientUnits="userSpaceOnUse" x1="256" x2="256" xlink:href="#lg1" y1="512" y2="181"/><linearGradient id="SVGID_4_" gradientUnits="userSpaceOnUse" x1="256" x2="256" xlink:href="#lg2" y1="421.004" y2="270.997"/><g><path d="m316 0h-120c-8.284 0-15 6.716-15 15v60c0 8.284 6.716 15 15 15h120c8.284 0 15-6.716 15-15v-60c0-8.284-6.716-15-15-15z" fill="url(#SVGID_1_)"/><path d="m391 75v106l-133 18-137-18v-106c0-8.28 6.72-15 15-15h240c8.28 0 15 6.72 15 15z" fill="url(#SVGID_2_)"/><path d="m121 181v316c0 8.28 6.72 15 15 15h240c8.28 0 15-6.72 15-15v-316z" fill="url(#SVGID_3_)"/><path d="m249.292 419.417c-7.41-3.705-10.413-12.715-6.708-20.125l19.145-38.292h-35.729c-5.199 0-10.027-2.692-12.76-7.114s-2.981-9.944-.657-14.594l30-60c3.704-7.41 12.716-10.413 20.125-6.708 7.41 3.705 10.413 12.715 6.708 20.125l-19.145 38.291h35.729c5.199 0 10.027 2.692 12.76 7.114s2.981 9.944.657 14.594l-30 60c-3.699 7.399-12.705 10.419-20.125 6.709z" fill="url(#SVGID_4_)"/></g></svg>