<svg id="Capa_1" enable-background="new 0 0 512 512" height="512" viewBox="0 0 512 512" width="512" xmlns="http://www.w3.org/2000/svg" xmlns:xlink="http://www.w3.org/1999/xlink"><linearGradient id="SVGID_1_" gradientUnits="userSpaceOnUse" x1="346.5" x2="346.5" y1="361" y2="0"><stop offset="0" stop-color="#a93aff"/><stop offset="1" stop-color="#ff81ff"/></linearGradient><linearGradient id="SVGID_2_" gradientUnits="userSpaceOnUse" x1="165.5" x2="165.5" y1="512.001" y2="151"><stop offset="0" stop-color="#ffbef9"/><stop offset="1" stop-color="#fff1ff"/></linearGradient><g><path d="m497 0h-301c-8.284 0-15 6.716-15 15v241c0 8.284 6.716 15 15 15h143.787l85.607 85.606c4.859 4.86 12.406 5.811 18.358 2.238 4.595-2.758 7.249-7.876 7.249-13.235v-74.61h46c8.284 0 15-6.716 15-15v-240.999c-.001-8.284-6.716-15-15.001-15z" fill="url(#SVGID_1_)"/><path d="m75.997 512c-1.919 0-3.854-.368-5.699-1.126-5.625-2.312-9.298-7.792-9.298-13.874v-76h-46c-8.284 0-15-6.716-15-15v-240c0-8.284 6.716-15 15-15h301c8.284 0 15 6.716 15 15v240c0 8.284-6.716 15-15 15h-143.738l-85.597 86.548c-2.874 2.906-6.737 4.452-10.668 4.452z" fill="url(#SVGID_2_)"/></g></svg>