<svg id="Capa_1" enable-background="new 0 0 512 512" height="512" viewBox="0 0 512 512" width="512" xmlns="http://www.w3.org/2000/svg" xmlns:xlink="http://www.w3.org/1999/xlink"><linearGradient id="SVGID_1_" gradientUnits="userSpaceOnUse" x1="256" x2="256" y1="482.816" y2="29.184"><stop offset="0" stop-color="#ffc2cc"/><stop offset="1" stop-color="#fff2f4"/></linearGradient><linearGradient id="SVGID_2_" gradientUnits="userSpaceOnUse" x1="256" x2="256" y1="512" y2="0"><stop offset="0" stop-color="#fd3a84"/><stop offset="1" stop-color="#ffa68d"/></linearGradient><g><g><g><path d="m482.846 241h-2.344l-.176-2.329c-3.75-48.267-22.354-92.871-53.818-128.979l-1.436-1.655 1.465-1.45-11.279-9.814-9.844-11.323-1.465 1.465-1.641-1.436c-36.094-31.45-80.713-50.054-128.994-53.789l-2.314-.177v-2.329l-15 1.172-15-1.172v2.329l-2.314.176c-48.281 3.735-92.9 22.339-128.994 53.789l-1.641 1.436-1.465-1.465-9.844 11.323-11.279 9.814 1.465 1.45-1.436 1.655c-31.465 36.109-50.068 80.713-53.818 128.98l-.176 2.329h-2.344l1.172 15-1.172 15h2.344l.176 2.329c3.75 48.281 22.354 92.871 53.818 128.965l1.436 1.655-1.465 1.465 11.367 9.888 9.756 11.221 1.465-1.45 1.641 1.45c36.094 31.45 80.713 50.054 128.994 53.789l2.314.176v2.329l15-1.172 15 1.172v-2.329l2.314-.176c48.281-3.735 92.9-22.339 128.994-53.789l1.641-1.45 1.465 1.45 9.756-11.221 11.367-9.888-1.465-1.465 1.436-1.655c31.465-36.094 50.068-80.684 53.818-128.965l.176-2.329h2.344l-1.172-15z" fill="url(#SVGID_1_)"/></g></g><g><g><path d="m256 0c-140.7 0-256 115.3-256 256s115.3 256 256 256 256-115.3 256-256-115.3-256-256-256zm147.9 382.599-31.2-31.199c-6-5.7-15.3-5.7-21.301 0-5.7 6-5.7 15.3 0 21.301l31.199 31.199c-30.298 26.4-69 43.2-111.599 46.5v-44.4c0-8.401-6.599-15-15-15s-15 6.599-15 15v44.399c-42.599-3.3-81.301-20.1-111.599-46.5l31.2-31.199c5.7-6 5.7-15.3 0-21.301-6-5.7-15.3-5.7-21.301 0l-31.199 31.2c-26.4-30.3-43.2-69-46.5-111.599h44.4c8.401 0 15-6.601 15-15 0-8.401-6.599-15-15-15h-44.399c3.3-42.601 20.099-81.301 46.5-111.601l31.199 31.201c5.795 5.792 15.866 5.431 21.301 0 5.7-6 5.7-15.3 0-21.301l-31.2-31.199c30.298-26.4 69-43.2 111.599-46.501v44.401c0 8.399 6.599 15 15 15s15-6.601 15-15v-44.401c42.599 3.301 81.301 20.101 111.599 46.501l-31.199 31.2c-5.7 6-5.7 15.3 0 21.301 5.432 5.429 15.498 5.799 21.301 0l31.199-31.201c26.4 30.3 43.2 69 46.5 111.601h-44.4c-8.401 0-15 6.599-15 15 0 8.399 6.599 15 15 15h44.399c-3.299 42.599-20.099 81.298-46.499 111.598zm-132.9-132.81v-83.789c0-8.291-6.709-15-15-15s-15 6.709-15 15v90c0 1.952.396 3.895 1.154 5.728.764 1.846 1.868 3.508 3.259 4.896l59.982 59.982c5.859 5.859 15.351 5.859 21.211 0 5.859-5.859 5.859-15.352 0-21.211z" fill="url(#SVGID_2_)"/></g></g></g></svg>