<svg id="Capa_1" enable-background="new 0 0 512 512" height="512" viewBox="0 0 512 512" width="512" xmlns="http://www.w3.org/2000/svg" xmlns:xlink="http://www.w3.org/1999/xlink"><linearGradient id="lg1"><stop offset="0" stop-color="#5558ff"/><stop offset="1" stop-color="#00c0ff"/></linearGradient><linearGradient id="SVGID_1_" gradientUnits="userSpaceOnUse" x1="256" x2="256" xlink:href="#lg1" y1="467" y2="347"/><linearGradient id="SVGID_2_" gradientUnits="userSpaceOnUse" x1="256" x2="256" xlink:href="#lg1" y1="362" y2="92"/><linearGradient id="SVGID_3_" gradientUnits="userSpaceOnUse" x1="256" x2="256" y1="512" y2="0"><stop offset="0" stop-color="#addcff"/><stop offset=".5028" stop-color="#eaf6ff"/><stop offset="1" stop-color="#eaf6ff"/></linearGradient><g><g><path d="m166 467v-120h180v120z" fill="url(#SVGID_1_)"/><path d="m497 122h-106l-135-30-135 30h-106c-8.401 0-15 6.599-15 15v210c0 8.399 6.599 15 15 15h121c8.401 0 15-6.601 15-15v-15h210v15c0 8.399 6.599 15 15 15h121c8.401 0 15-6.601 15-15v-210c0-8.401-6.599-15-15-15z" fill="url(#SVGID_2_)"/></g><g><g><path d="m391 15c0-8.401-6.599-15-15-15h-240c-8.401 0-15 6.599-15 15v107h270zm-75 167c-8.291 0-15 6.709-15 15s6.709 15 15 15h30c8.291 0 15-6.709 15-15s-6.709-15-15-15zm120 0h-30c-8.291 0-15 6.709-15 15s6.709 15 15 15h30c8.291 0 15-6.709 15-15s-6.709-15-15-15zm-285 45c0-24.814-20.186-45-45-45s-45 20.186-45 45 20.186 45 45 45 45-20.186 45-45zm225 75h-240c-8.401 0-15 6.599-15 15v180c0 8.399 6.599 15 15 15h240c8.401 0 15-6.601 15-15v-180c0-8.401-6.599-15-15-15zm-60 150h-120c-8.401 0-15-6.601-15-15 0-8.401 6.599-15 15-15h120c8.401 0 15 6.599 15 15 0 8.399-6.599 15-15 15zm0-60h-120c-8.401 0-15-6.601-15-15 0-8.401 6.599-15 15-15h120c8.401 0 15 6.599 15 15 0 8.399-6.599 15-15 15z" fill="url(#SVGID_3_)"/></g></g></g></svg>