<svg id="Capa_1" enable-background="new 0 0 511.977 511.977" height="512" viewBox="0 0 511.977 511.977" width="512" xmlns="http://www.w3.org/2000/svg" xmlns:xlink="http://www.w3.org/1999/xlink"><linearGradient id="SVGID_1_" gradientUnits="userSpaceOnUse" x1="257.339" x2="257.339" y1="496.192" y2="112.728"><stop offset="0" stop-color="#a93aff"/><stop offset="1" stop-color="#ff81ff"/></linearGradient><linearGradient id="SVGID_2_" gradientUnits="userSpaceOnUse" x1="255.988" x2="255.988" y1="488.422" y2="15.785"><stop offset="0" stop-color="#ffbef9"/><stop offset="1" stop-color="#fff1ff"/></linearGradient><g><g><g><path d="m133.475 323.109c-8.401-23.399-34.497-35.4-57.898-27.001-15.906 5.736-26.365 19.856-28.833 35.466-14.614-69.666 6.511-142.05 57.558-193.256 5.83-5.874 5.83-15.366-.059-21.211-5.801-5.83-15.352-5.859-21.211.029-64.276 64.498-86.952 158.439-59.178 245.158 2.499 7.747 10.818 12.251 18.867 9.697 1.498-.477 2.865-1.168 4.084-2.026l-8.535 66.971 51.707 29.574c1.802 5.099 4.501 9.3 7.8 13.2 10.687 13.852 30.467 20.624 49.797 13.799 23.401-8.399 35.402-34.499 27.004-57.599zm298.195-205.972c-5.859-5.889-15.352-5.859-21.211-.029-5.889 5.845-5.889 15.337-.059 21.211 53.377 53.556 73.971 130.105 55.334 202.607.038-.738.062-1.477.062-2.217 0-18.784-11.125-35.757-29.7-42.601-22.536-8.3-48.584 2.527-57.601 27.001l-41.096 112.8c-8.401 23.101 3.596 49.2 26.997 57.599 19.239 6.793 38.717.054 49.801-13.799 3.3-3.9 5.999-8.101 7.797-13.2l51.514-29.041-8.567-68.928c1.721 1.967 3.964 3.52 6.63 4.387 7.703 2.517 16.304-1.623 18.897-9.624 28.302-87.025 5.773-181.346-58.798-246.166z" fill="url(#SVGID_1_)"/></g></g><g><g><path d="m434.161 135.36c15.186-19.741 11.482-47.941-8.232-63.105-97.852-75.293-239.33-75.293-337.182 0-19.712 15.163-23.434 43.368-8.203 63.12 15.182 19.737 43.452 23.372 63.076 8.218 65.566-50.479 161.869-50.449 227.436 0 19.189 14.736 48.485 10.795 63.105-8.233zm48.134 209.648-16.498-6.299c0 5.099-.897 10.199-2.699 15l-41.104 112.8c-1.798 5.099-4.497 9.3-7.797 13.2l16.798 5.999c24.13 8.514 48.907-3.724 57.601-26.699l20.702-56.4c8.399-23.4-3.602-49.2-27.003-57.601zm-433.418 8.702c-1.798-5.101-2.699-9.901-2.699-15l-16.501 6.299c-23.401 8.401-35.398 34.2-26.997 57.601l20.398 56.4c8.812 23.371 34.337 35.018 57.898 26.699l16.802-5.999c-3.3-3.9-5.999-8.101-7.8-13.2z" fill="url(#SVGID_2_)"/></g></g></g></svg>