<svg id="Capa_1" enable-background="new 0 0 512 512" height="512" viewBox="0 0 512 512" width="512" xmlns="http://www.w3.org/2000/svg" xmlns:xlink="http://www.w3.org/1999/xlink"><linearGradient id="SVGID_1_" gradientUnits="userSpaceOnUse" x1="180" x2="180" y1="512" y2="0"><stop offset="0" stop-color="#a93aff"/><stop offset="1" stop-color="#ff81ff"/></linearGradient><linearGradient id="SVGID_2_" gradientUnits="userSpaceOnUse" x1="256" x2="256" y1="452" y2="60"><stop offset="0" stop-color="#ffbef9"/><stop offset="1" stop-color="#fff1ff"/></linearGradient><g id="Video_camera_2_"><g><g><path d="m315 240h-63.779c-4.473 0-8.474 1.964-11.221 5.064v-100.128c2.747 3.1 6.748 5.064 11.221 5.064h63.779c8.291 0 15-6.709 15-15s-6.709-15-15-15h-63.779c-4.473 0-8.474 1.964-11.221 5.064v-80.064c0-24.814-20.186-45-45-45h-120c-24.814 0-45 20.186-45 45v422c0 24.814 20.186 45 45 45h120c24.814 0 45-20.186 45-45v-202.064c2.747 3.1 6.748 5.064 11.221 5.064h63.779c8.291 0 15-6.709 15-15s-6.709-15-15-15z" fill="url(#SVGID_1_)"/></g></g><g><g><path d="m135 60c-73.798 0-135 59.585-135 135 0 74.118 60.334 135 135 135 73.798 0 135-59.585 135-135 0-74.118-60.334-135-135-135zm0 210c-41.4 0-75-33.6-75-75s33.6-75 75-75 75 33.6 75 75-33.6 75-75 75zm362-180h-182c-8.291 0-15 6.709-15 15v180c0 8.291 6.709 15 15 15h182c8.291 0 15-6.709 15-15v-180c0-8.291-6.709-15-15-15zm-332 332c-8.284 0-15 6.716-15 15s6.716 15 15 15 15-6.716 15-15-6.716-15-15-15z" fill="url(#SVGID_2_)"/></g></g></g></svg>