<svg id="Capa_1" enable-background="new 0 0 512 512" height="512" viewBox="0 0 512 512" width="512" xmlns="http://www.w3.org/2000/svg" xmlns:xlink="http://www.w3.org/1999/xlink"><linearGradient id="SVGID_1_" gradientUnits="userSpaceOnUse" x1="211" x2="211" y1="466" y2="166"><stop offset="0" stop-color="#fd3a84"/><stop offset="1" stop-color="#ffa68d"/></linearGradient><linearGradient id="SVGID_2_" gradientUnits="userSpaceOnUse" x1="271.5" x2="271.5" y1="435.993" y2="46"><stop offset="0" stop-color="#ffc2cc"/><stop offset="1" stop-color="#fff2f4"/></linearGradient><g><g><g><path d="m392 276.7v-65.7c0-8.401-6.599-15-15-15h-39.357l-66.643-30-66.643 30h-38.694l-59.663-30-59.663 30h-31.337c-8.401 0-15 6.599-15 15v240c0 8.401 6.599 15 15 15h362c8.401 0 15-6.599 15-15v-65.7l30-48.875z" fill="url(#SVGID_1_)"/></g></g><g><g><path d="m181 151c0-41.4-33.6-75-75-75s-75 33.6-75 75c0 16.8 5.698 32.701 15 45h120c9.302-12.299 15-28.2 15-45zm90-105c-49.501 0-90 40.499-90 90 0 22.8 8.701 44.099 23.101 60h133.799c14.399-15.901 23.1-37.2 23.1-60 0-49.501-40.499-90-90-90zm233.8 182.1c-4.2-2.701-9.902-3.001-14.399-.601l-98.401 49.201v108.6l98.401 49.2c5.567 2.385 10.696 1.711 14.399-.601 4.497-2.999 7.2-7.8 7.2-12.9v-179.999c0-5.099-2.703-9.901-7.2-12.9zm-248.8 27.9h-180c-8.291 0-15 6.709-15 15v120c0 8.291 6.709 15 15 15h180c8.291 0 15-6.709 15-15v-120c0-8.291-6.709-15-15-15zm60 0c-8.284 0-15 6.716-15 15s6.716 15 15 15 15-6.716 15-15-6.716-15-15-15z" fill="url(#SVGID_2_)"/></g></g></g></svg>