<svg id="Capa_1" enable-background="new 0 0 512 512" height="512" viewBox="0 0 512 512" width="512" xmlns="http://www.w3.org/2000/svg" xmlns:xlink="http://www.w3.org/1999/xlink"><linearGradient id="SVGID_1_" gradientUnits="userSpaceOnUse" x1="256" x2="256" y1="512" y2="0"><stop offset="0" stop-color="#5558ff"/><stop offset="1" stop-color="#00c0ff"/></linearGradient><linearGradient id="SVGID_2_" gradientUnits="userSpaceOnUse" x1="256" x2="256" y1="421" y2="61.095"><stop offset="0" stop-color="#addcff"/><stop offset=".5028" stop-color="#eaf6ff"/><stop offset="1" stop-color="#eaf6ff"/></linearGradient><g id="Speedmeter_2_"><g><g><path d="m256 512c-140.61 0-256-115.39-256-256s115.39-256 256-256 256 115.39 256 256-115.39 256-256 256z" fill="url(#SVGID_1_)"/></g></g><g><g><path d="m346 331h-180c-8.291 0-15 6.709-15 15v60c0 8.291 6.709 15 15 15h180c8.291 0 15-6.709 15-15v-60c0-8.291-6.709-15-15-15zm47.886-212.886c-76.025-76.025-199.746-76.025-275.771 0-36.768 36.768-57.027 85.738-57.027 137.886 0 8.291 6.709 15 15 15h59.971c8.291 0 15-6.709 15-15 0-28.096 10.898-54.463 30.688-74.253 37.355-37.328 96.031-40.604 137.136-9.842l-73.489 73.489c-5.859 5.859-5.859 15.352 0 21.211 2.93 2.93 6.768 4.395 10.605 4.395s7.676-1.465 10.605-4.395l73.498-73.498c13.521 18.029 20.838 39.88 20.838 62.893 0 8.291 6.709 15 15 15h59.971c8.291 0 15-6.709 15-15 .001-52.148-20.258-101.118-57.025-137.886z" fill="url(#SVGID_2_)"/></g></g></g></svg>