<svg id="Capa_1" enable-background="new 0 0 512 512" height="512" viewBox="0 0 512 512" width="512" xmlns="http://www.w3.org/2000/svg" xmlns:xlink="http://www.w3.org/1999/xlink"><linearGradient id="SVGID_1_" gradientUnits="userSpaceOnUse" x1="256" x2="256" y1="496" y2="16"><stop offset="0" stop-color="#fd5900"/><stop offset="1" stop-color="#ffde00"/></linearGradient><linearGradient id="SVGID_2_" gradientUnits="userSpaceOnUse" x1="256" x2="256" y1="331.824" y2="136"><stop offset="0" stop-color="#ffe59a"/><stop offset="1" stop-color="#ffffd5"/></linearGradient><g><g><g><path d="m256 151.824c-88.125 0-177.25 156.825-256 110.474v218.702c0 8.399 6.599 15 15 15h482c8.401 0 15-6.601 15-15v-218.701c-78.75 46.35-167.875-110.475-256-110.475zm-90 14.176c8.291 0 15-6.709 15-15v-30c0-41.353 33.633-75 75-75s75 33.647 75 75v30c0 8.291 6.709 15 15 15s15-6.709 15-15v-30c0-57.891-47.109-105-105-105s-105 47.109-105 105v30c0 8.291 6.709 15 15 15z" fill="url(#SVGID_1_)"/></g></g><g><g><path d="m497 136h-482c-8.401 0-15 6.599-15 15v111.299c157.5 92.701 354.5 92.701 512 0v-111.299c0-8.401-6.599-15-15-15zm-241 150c-24.901 0-45-20.101-45-45 0-24.9 20.099-45 45-45s45 20.1 45 45c0 24.899-20.099 45-45 45z" fill="url(#SVGID_2_)"/></g></g></g></svg>