<svg id="Capa_1" enable-background="new 0 0 512 512" height="512" viewBox="0 0 512 512" width="512" xmlns="http://www.w3.org/2000/svg" xmlns:xlink="http://www.w3.org/1999/xlink"><linearGradient id="SVGID_1_" gradientUnits="userSpaceOnUse" x1="256" x2="256" y1="512" y2="0"><stop offset="0" stop-color="#5558ff"/><stop offset="1" stop-color="#00c0ff"/></linearGradient><linearGradient id="SVGID_2_" gradientUnits="userSpaceOnUse" x1="256" x2="256" y1="452" y2="60"><stop offset="0" stop-color="#addcff"/><stop offset=".5028" stop-color="#eaf6ff"/><stop offset="1" stop-color="#eaf6ff"/></linearGradient><g><g><path d="m406 512h-300c-8.291 0-15-6.709-15-15v-482c0-8.291 6.709-15 15-15h300c8.291 0 15 6.709 15 15v482c0 8.291-6.709 15-15 15z" fill="url(#SVGID_1_)"/></g><g><g><path d="m234.32 267.48 90-60c4.175-2.783 6.68-7.471 6.68-12.48s-2.505-9.697-6.68-12.48l-90-60c-9.885-6.6-23.32.451-23.32 12.48v120c0 12.056 13.445 19.064 23.32 12.48zm21.68-177.48c8.284 0 15-6.716 15-15s-6.716-15-15-15-15 6.716-15 15 6.716 15 15 15zm90 242h-45v-15c0-8.291-6.709-15-15-15s-15 6.709-15 15v15h-105c-8.291 0-15 6.709-15 15s6.709 15 15 15h105v15c0 8.291 6.709 15 15 15s15-6.709 15-15v-15h45c8.291 0 15-6.709 15-15s-6.709-15-15-15zm-60 90h-60c-8.291 0-15 6.709-15 15s6.709 15 15 15h60c8.291 0 15-6.709 15-15s-6.709-15-15-15z" fill="url(#SVGID_2_)"/></g></g></g></svg>