<svg id="Capa_1" enable-background="new 0 0 512 512" height="512" viewBox="0 0 512 512" width="512" xmlns="http://www.w3.org/2000/svg" xmlns:xlink="http://www.w3.org/1999/xlink"><linearGradient id="SVGID_1_" gradientUnits="userSpaceOnUse" x1="256" x2="256" y1="512" y2="0"><stop offset="0" stop-color="#fd5900"/><stop offset="1" stop-color="#ffde00"/></linearGradient><linearGradient id="SVGID_2_" gradientUnits="userSpaceOnUse" x1="158.5" x2="158.5" y1="475.814" y2="35.309"><stop offset="0" stop-color="#ffe59a"/><stop offset="1" stop-color="#ffffd5"/></linearGradient><g><path d="m256 512c-1.487 0-2.974-.221-4.411-.663-122.068-37.56-205.589-151.1-205.589-279.359v-156.978c0-6.585 4.295-12.4 10.589-14.337l195-60c2.874-.884 5.948-.884 8.822 0l195 60c6.294 1.937 10.589 7.752 10.589 14.337v156.978c0 128.208-83.465 241.783-205.589 279.359-1.437.442-2.924.663-4.411.663z" fill="url(#SVGID_1_)"/><g><path d="m241 35.309-165 50.769v145.899c0 107.254 66.903 204.709 165 243.836z" fill="url(#SVGID_2_)"/></g></g></svg>