<svg id="Capa_1" enable-background="new 0 0 510.405 510.405" height="512" viewBox="0 0 510.405 510.405" width="512" xmlns="http://www.w3.org/2000/svg" xmlns:xlink="http://www.w3.org/1999/xlink"><linearGradient id="SVGID_1_" gradientUnits="userSpaceOnUse" x1="156.066" x2="262.134" y1="354.302" y2="248.233"><stop offset="0" stop-color="#5558ff"/><stop offset="1" stop-color="#00c0ff"/></linearGradient><linearGradient id="SVGID_2_" gradientUnits="userSpaceOnUse" x1="251.529" x2="304.567" y1="258.844" y2="205.806"><stop offset="0" stop-color="#addcff"/><stop offset=".5028" stop-color="#eaf6ff"/><stop offset="1" stop-color="#eaf6ff"/></linearGradient><g><g><g><path d="m368.098 510.405c-36.06 0-69.96-14.042-95.456-39.539l-233.141-233.129c-52.632-52.633-52.632-138.28-.001-190.923 2.813-2.813 6.628-4.394 10.606-4.395s7.794 1.581 10.608 4.394l121.07 121.07c5.858 5.858 5.858 15.355 0 21.213-5.85 5.85-5.85 15.367 0 21.217l118.28 118.28c5.848 5.843 15.369 5.843 21.221-.004 5.858-5.853 15.353-5.852 21.209.004l121.06 121.06c5.858 5.858 5.858 15.355 0 21.213-25.496 25.497-59.397 39.539-95.456 39.539z" fill="url(#SVGID_1_)"/></g></g><g><g><path d="m103.144 4.393c-5.859-5.857-15.354-5.857-21.212-.001l-42.43 42.42 142.282 142.285 42.43-42.43c2.813-2.813 4.394-6.629 4.394-10.607 0-3.979-1.581-7.794-4.394-10.607zm402.84 402.84-121.07-121.07c-2.813-2.813-6.629-4.394-10.607-4.393s-7.794 1.581-10.606 4.395l-42.42 42.43 142.272 142.273 42.431-42.42c2.813-2.813 4.395-6.628 4.395-10.607s-1.581-7.795-4.395-10.608z" fill="url(#SVGID_2_)"/></g></g></g></svg>