<svg id="Capa_1" enable-background="new 0 0 512 512" height="512" viewBox="0 0 512 512" width="512" xmlns="http://www.w3.org/2000/svg" xmlns:xlink="http://www.w3.org/1999/xlink"><linearGradient id="SVGID_1_" gradientUnits="userSpaceOnUse" x1="256" x2="256" y1="392" y2="0"><stop offset="0" stop-color="#addcff"/><stop offset=".5028" stop-color="#eaf6ff"/><stop offset="1" stop-color="#eaf6ff"/></linearGradient><linearGradient id="SVGID_2_" gradientUnits="userSpaceOnUse" x1="256" x2="256" y1="512" y2="272"><stop offset="0" stop-color="#5558ff"/><stop offset="1" stop-color="#00c0ff"/></linearGradient><g><path d="m256 392c-57.897 0-105-47.103-105-105v-182c0-57.897 47.103-105 105-105s105 47.103 105 105v182c0 57.897-47.103 105-105 105z" fill="url(#SVGID_1_)"/><path d="m421 287c0-8.284-6.716-15-15-15s-15 6.716-15 15c0 74.439-60.561 135-135 135s-135-60.561-135-135c0-8.284-6.716-15-15-15s-15 6.716-15 15c0 85.925 66.023 156.707 150 164.311v30.689h-75c-8.284 0-15 6.716-15 15s6.716 15 15 15h180c8.284 0 15-6.716 15-15s-6.716-15-15-15h-75v-30.689c83.977-7.604 150-78.386 150-164.311z" fill="url(#SVGID_2_)"/></g></svg>