<svg id="Capa_1" enable-background="new 0 0 512 512" height="512" viewBox="0 0 512 512" width="512" xmlns="http://www.w3.org/2000/svg" xmlns:xlink="http://www.w3.org/1999/xlink"><linearGradient id="SVGID_1_" gradientUnits="userSpaceOnUse" x1="256" x2="256" y1="331" y2="0"><stop offset="0" stop-color="#addcff"/><stop offset=".5028" stop-color="#eaf6ff"/><stop offset="1" stop-color="#eaf6ff"/></linearGradient><linearGradient id="SVGID_2_" gradientUnits="userSpaceOnUse" x1="256" x2="256" y1="512" y2="210"><stop offset="0" stop-color="#5558ff"/><stop offset="1" stop-color="#00c0ff"/></linearGradient><g id="Group_2_"><g><g><path d="m136 121c-57.891 0-105 47.109-105 105s47.109 105 105 105 105-47.109 105-105-47.109-105-105-105zm240-121c-57.891 0-105 47.109-105 105s47.109 105 105 105 105-47.109 105-105-47.109-105-105-105z" fill="url(#SVGID_1_)"/></g></g><g><g><path d="m136 331c-74.443 0-136 60.557-136 135v31c0 8.291 7.709 15 16 15h240c8.291 0 15-6.709 15-15v-31c0-74.443-60.557-135-135-135zm240-121c-74.443 0-135 60.557-135 135v31c0 8.291 6.709 15 15 15h240c8.291 0 16-6.709 16-15v-31c0-74.443-61.557-135-136-135z" fill="url(#SVGID_2_)"/></g></g></g></svg>