<svg id="Capa_1" enable-background="new 0 0 512 512" height="512" viewBox="0 0 512 512" width="512" xmlns="http://www.w3.org/2000/svg" xmlns:xlink="http://www.w3.org/1999/xlink"><linearGradient id="lg1"><stop offset="0" stop-color="#fd3a84"/><stop offset="1" stop-color="#ffa68d"/></linearGradient><linearGradient id="SVGID_1_" gradientUnits="userSpaceOnUse" x1="256" x2="256" xlink:href="#lg1" y1="361" y2="31"/><linearGradient id="lg2"><stop offset="0" stop-color="#ffc8d1"/><stop offset="1" stop-color="#fff6f7"/></linearGradient><linearGradient id="SVGID_2_" gradientUnits="userSpaceOnUse" x1="272" x2="272" xlink:href="#lg2" y1="301" y2="90.999"/><linearGradient id="SVGID_3_" gradientUnits="userSpaceOnUse" x1="181" x2="181" xlink:href="#lg2" y1="451" y2="421"/><linearGradient id="SVGID_4_" gradientUnits="userSpaceOnUse" x1="452" x2="452" xlink:href="#lg2" y1="451" y2="421"/><linearGradient id="SVGID_5_" gradientUnits="userSpaceOnUse" x1="377" x2="377" xlink:href="#lg1" y1="481" y2="391"/><g id="video_2_"><g id="Mail_4_"><g><path d="m497 361h-482c-8.291 0-15-6.709-15-15v-300c0-8.291 6.709-15 15-15h482c8.291 0 15 6.709 15 15v300c0 8.291-6.709 15-15 15z" fill="url(#SVGID_1_)"/></g></g><g><path d="m197 301c-2.549 0-5.098-.645-7.397-1.948-4.703-2.666-7.603-7.647-7.603-13.052v-180c0-5.405 2.9-10.386 7.603-13.052 4.717-2.666 10.459-2.593 15.117.19l150 90c4.512 2.71 7.28 7.588 7.28 12.861s-2.769 10.151-7.28 12.861l-150 90c-2.373 1.422-5.054 2.14-7.72 2.14z" fill="url(#SVGID_2_)"/></g><g><path d="m347 451h-332c-8.291 0-15-6.709-15-15s6.709-15 15-15h332c8.291 0 15 6.709 15 15s-6.709 15-15 15z" fill="url(#SVGID_3_)"/></g><g><path d="m497 451h-90c-8.291 0-15-6.709-15-15s6.709-15 15-15h90c8.291 0 15 6.709 15 15s-6.709 15-15 15z" fill="url(#SVGID_4_)"/></g><g><g><circle cx="377" cy="436" fill="url(#SVGID_5_)" r="45"/></g></g></g></svg>